<svg width="16" height="16" viewBox="0 0 16 16" fill="none" xmlns="http://www.w3.org/2000/svg">
<mask id="mask0_684_2584" style="mask-type:alpha" maskUnits="userSpaceOnUse" x="0" y="0" width="16" height="16">
<rect width="16" height="16" fill="#D9D9D9"/>
</mask>
<g mask="url(#mask0_684_2584)">
<path d="M7.03328 12.1333L10.4833 7.99999H7.81661L8.29995 4.21666L5.21661 8.66666H7.53328L7.03328 12.1333ZM6.38461 9.66666H4.35645C4.13245 9.66666 3.96834 9.56749 3.86411 9.36916C3.75978 9.17093 3.77261 8.97993 3.90261 8.79615L8.27045 2.49499C8.36022 2.36932 8.47478 2.28338 8.61411 2.23715C8.75333 2.19104 8.89817 2.19493 9.04861 2.24882C9.19906 2.3026 9.30911 2.39466 9.37878 2.52499C9.44845 2.65532 9.47428 2.79571 9.45628 2.94616L8.95511 6.99999H11.4423C11.6798 6.99999 11.8473 7.10643 11.9448 7.31932C12.0422 7.5321 12.0136 7.73038 11.8589 7.91416L7.02945 13.6987C6.93289 13.8132 6.81495 13.8874 6.67561 13.9212C6.53628 13.9548 6.40039 13.9413 6.26795 13.8807C6.1355 13.82 6.03272 13.7273 5.95961 13.6025C5.8865 13.4777 5.85895 13.3401 5.87695 13.1897L6.38461 9.66666Z" fill="#1E2938"/>
</g>
</svg>
