<svg width="16" height="19" viewBox="0 0 16 19" fill="none" xmlns="http://www.w3.org/2000/svg">
<path d="M7.548 17.0135C9.50433 15.2622 11.0014 13.5823 12.0393 11.974C13.0771 10.3657 13.596 8.957 13.596 7.748C13.596 5.925 13.0168 4.42633 11.8585 3.252C10.7002 2.07767 9.26333 1.4905 7.548 1.4905C5.83267 1.4905 4.39583 2.07767 3.2375 3.252C2.07917 4.42633 1.5 5.925 1.5 7.748C1.5 8.957 2.01892 10.3657 3.05675 11.974C4.09458 13.5823 5.59167 15.2622 7.548 17.0135ZM6.9635 18.3395C6.7685 18.2722 6.59217 18.168 6.4345 18.027C5.53717 17.2 4.69742 16.3483 3.91525 15.472C3.13325 14.5958 2.4535 13.7199 1.876 12.8443C1.29833 11.9686 0.84125 11.1007 0.50475 10.2405C0.16825 9.38017 0 8.54933 0 7.748C0 5.44033 0.746417 3.57208 2.23925 2.14325C3.73225 0.714416 5.50183 0 7.548 0C9.59417 0 11.3637 0.714416 12.8567 2.14325C14.3496 3.57208 15.096 5.44033 15.096 7.748C15.096 8.54933 14.9277 9.3785 14.5912 10.2355C14.2547 11.0927 13.7993 11.9607 13.225 12.8395C12.6505 13.7183 11.9722 14.5942 11.1902 15.4672C10.4082 16.3404 9.5685 17.1904 8.671 18.0173C8.51333 18.1583 8.3355 18.264 8.1375 18.3345C7.93933 18.405 7.74283 18.4403 7.548 18.4403C7.35317 18.4403 7.15833 18.4067 6.9635 18.3395ZM8.82575 8.8355C9.17908 8.48233 9.35575 8.05642 9.35575 7.55775C9.35575 7.05908 9.17908 6.63308 8.82575 6.27975C8.47258 5.92658 8.04667 5.75 7.548 5.75C7.04933 5.75 6.62342 5.92658 6.27025 6.27975C5.91692 6.63308 5.74025 7.05908 5.74025 7.55775C5.74025 8.05642 5.91692 8.48233 6.27025 8.8355C6.62342 9.18867 7.04933 9.36525 7.548 9.36525C8.04667 9.36525 8.47258 9.18867 8.82575 8.8355Z" fill="#919AA8"/>
</svg>
